<svg width="100" height="100" viewBox="0 0 100 100" fill="none" xmlns="http://www.w3.org/2000/svg">
  <!-- Define the gradient for the main chat bubble -->
  <defs>
    <linearGradient id="chatBubbleGradient" x1="0" y1="0" x2="100" y2="100">
      <stop offset="0%" stop-color="#4A90E2" />
      <stop offset="100%" stop-color="#50E3C2" />
    </linearGradient>
    <linearGradient id="sparkGradient" x1="50" y1="35" x2="50" y2="65">
      <stop offset="0%" stop-color="#FFFFFF" stop-opacity="1" />
      <stop offset="100%" stop-color="#FFFFFF" stop-opacity="0.8" />
    </linearGradient>
  </defs>

  <!-- Main chat bubble shape -->
  <path d="M89.6,5H10.4C7.4,5,5,7.4,5,10.4v54.2C5,67.6,7.4,70,10.4,70H25v15c0,2.8,3.6,4.2,5.6,2.2L46.8,70H89.6c3,0,5.4-2.4,5.4-5.4V10.4C95,7.4,92.6,5,89.6,5Z" fill="url(#chatBubbleGradient)"/>

  <!-- AI Spark/Intelligence symbol inside the bubble -->
  <g transform="translate(0, -2)">
    <path d="M50 35 L55 50 L70 50 L58 58 L62 72 L50 62 L38 72 L42 58 L30 50 L45 50 Z" fill="url(#sparkGradient)" transform="scale(0.7) translate(21, 18)">
      <animateTransform 
        attributeName="transform"
        type="rotate"
        from="0 50 50"
        to="10 50 50"
        dur="2s"
        repeatCount="indefinite"
        additive="sum"
        accumulate="sum"
        values="0 50 50; 5 50 50; -5 50 50; 0 50 50"
        keyTimes="0; 0.25; 0.75; 1"
        />
    </path>
  </g>
</svg>
